<mxfile modified="2023-09-04T04:35:57.733Z" host="app.diagrams.net" agent="Mozilla/5.0 (Macintosh; Intel Mac OS X 10.15; rv:109.0) Gecko/20100101 Firefox/117.0" etag="QiS-Ejivtm72Xltvg8iA" version="21.7.1" type="github">
  <diagram id="Ht1M8jgEwFfnCIfOTk4-" name="Page-1">
    <mxGraphModel dx="1346" dy="821" grid="1" gridSize="10" guides="1" tooltips="1" connect="1" arrows="1" fold="1" page="1" pageScale="1" pageWidth="1169" pageHeight="827" math="0" shadow="0">
      <root>
        <mxCell id="0" />
        <mxCell id="1" parent="0" />
        <mxCell id="UEzPUAAOIrF-is8g5C7q-74" value="AWS Cloud" style="points=[[0,0],[0.25,0],[0.5,0],[0.75,0],[1,0],[1,0.25],[1,0.5],[1,0.75],[1,1],[0.75,1],[0.5,1],[0.25,1],[0,1],[0,0.75],[0,0.5],[0,0.25]];outlineConnect=0;gradientColor=none;html=1;whiteSpace=wrap;fontSize=12;fontStyle=0;shape=mxgraph.aws4.group;grIcon=mxgraph.aws4.group_aws_cloud_alt;strokeColor=#232F3E;fillColor=none;verticalAlign=top;align=left;spacingLeft=30;fontColor=#232F3E;dashed=0;labelBackgroundColor=#ffffff;container=1;pointerEvents=0;collapsible=0;recursiveResize=0;" parent="1" vertex="1">
          <mxGeometry x="50" y="80" width="1030" height="350" as="geometry" />
        </mxCell>
        <mxCell id="KpQUSOOWRG7htBL5Qk_r-12" style="edgeStyle=orthogonalEdgeStyle;rounded=0;orthogonalLoop=1;jettySize=auto;html=1;exitX=1;exitY=0.5;exitDx=0;exitDy=0;exitPerimeter=0;" edge="1" parent="UEzPUAAOIrF-is8g5C7q-74" source="KpQUSOOWRG7htBL5Qk_r-2" target="KpQUSOOWRG7htBL5Qk_r-5">
          <mxGeometry relative="1" as="geometry" />
        </mxCell>
        <mxCell id="KpQUSOOWRG7htBL5Qk_r-2" value="Kong API Gateway" style="sketch=0;points=[[0,0,0],[0.25,0,0],[0.5,0,0],[0.75,0,0],[1,0,0],[0,1,0],[0.25,1,0],[0.5,1,0],[0.75,1,0],[1,1,0],[0,0.25,0],[0,0.5,0],[0,0.75,0],[1,0.25,0],[1,0.5,0],[1,0.75,0]];outlineConnect=0;fontColor=#232F3E;gradientColor=#F78E04;gradientDirection=north;fillColor=#D05C17;strokeColor=#ffffff;dashed=0;verticalLabelPosition=bottom;verticalAlign=top;align=center;html=1;fontSize=12;fontStyle=0;aspect=fixed;shape=mxgraph.aws4.resourceIcon;resIcon=mxgraph.aws4.ec2;" vertex="1" parent="UEzPUAAOIrF-is8g5C7q-74">
          <mxGeometry x="300" y="157" width="78" height="78" as="geometry" />
        </mxCell>
        <mxCell id="KpQUSOOWRG7htBL5Qk_r-11" style="edgeStyle=orthogonalEdgeStyle;rounded=0;orthogonalLoop=1;jettySize=auto;html=1;" edge="1" parent="UEzPUAAOIrF-is8g5C7q-74" source="KpQUSOOWRG7htBL5Qk_r-4" target="KpQUSOOWRG7htBL5Qk_r-2">
          <mxGeometry relative="1" as="geometry" />
        </mxCell>
        <mxCell id="KpQUSOOWRG7htBL5Qk_r-4" value="gw.bo.lotteeps.com" style="sketch=0;points=[[0,0,0],[0.25,0,0],[0.5,0,0],[0.75,0,0],[1,0,0],[0,1,0],[0.25,1,0],[0.5,1,0],[0.75,1,0],[1,1,0],[0,0.25,0],[0,0.5,0],[0,0.75,0],[1,0.25,0],[1,0.5,0],[1,0.75,0]];outlineConnect=0;fontColor=#232F3E;gradientColor=#945DF2;gradientDirection=north;fillColor=#5A30B5;strokeColor=#ffffff;dashed=0;verticalLabelPosition=bottom;verticalAlign=top;align=center;html=1;fontSize=12;fontStyle=0;aspect=fixed;shape=mxgraph.aws4.resourceIcon;resIcon=mxgraph.aws4.elastic_load_balancing;" vertex="1" parent="UEzPUAAOIrF-is8g5C7q-74">
          <mxGeometry x="90" y="157" width="78" height="78" as="geometry" />
        </mxCell>
        <mxCell id="KpQUSOOWRG7htBL5Qk_r-13" style="edgeStyle=orthogonalEdgeStyle;rounded=0;orthogonalLoop=1;jettySize=auto;html=1;" edge="1" parent="UEzPUAAOIrF-is8g5C7q-74" source="KpQUSOOWRG7htBL5Qk_r-5" target="KpQUSOOWRG7htBL5Qk_r-9">
          <mxGeometry relative="1" as="geometry" />
        </mxCell>
        <mxCell id="KpQUSOOWRG7htBL5Qk_r-5" value="api.{module}.lotteeps.com" style="sketch=0;points=[[0,0,0],[0.25,0,0],[0.5,0,0],[0.75,0,0],[1,0,0],[0,1,0],[0.25,1,0],[0.5,1,0],[0.75,1,0],[1,1,0],[0,0.25,0],[0,0.5,0],[0,0.75,0],[1,0.25,0],[1,0.5,0],[1,0.75,0]];outlineConnect=0;fontColor=#232F3E;gradientColor=#945DF2;gradientDirection=north;fillColor=#5A30B5;strokeColor=#ffffff;dashed=0;verticalLabelPosition=bottom;verticalAlign=top;align=center;html=1;fontSize=12;fontStyle=0;aspect=fixed;shape=mxgraph.aws4.resourceIcon;resIcon=mxgraph.aws4.elastic_load_balancing;" vertex="1" parent="UEzPUAAOIrF-is8g5C7q-74">
          <mxGeometry x="530" y="157" width="78" height="78" as="geometry" />
        </mxCell>
        <mxCell id="KpQUSOOWRG7htBL5Qk_r-17" style="edgeStyle=orthogonalEdgeStyle;rounded=0;orthogonalLoop=1;jettySize=auto;html=1;" edge="1" parent="UEzPUAAOIrF-is8g5C7q-74" source="KpQUSOOWRG7htBL5Qk_r-9">
          <mxGeometry relative="1" as="geometry">
            <mxPoint x="959" y="155" as="targetPoint" />
          </mxGeometry>
        </mxCell>
        <mxCell id="KpQUSOOWRG7htBL5Qk_r-18" style="edgeStyle=orthogonalEdgeStyle;rounded=0;orthogonalLoop=1;jettySize=auto;html=1;" edge="1" parent="UEzPUAAOIrF-is8g5C7q-74" source="KpQUSOOWRG7htBL5Qk_r-9" target="KpQUSOOWRG7htBL5Qk_r-14">
          <mxGeometry relative="1" as="geometry" />
        </mxCell>
        <mxCell id="KpQUSOOWRG7htBL5Qk_r-39" style="edgeStyle=orthogonalEdgeStyle;rounded=0;orthogonalLoop=1;jettySize=auto;html=1;" edge="1" parent="UEzPUAAOIrF-is8g5C7q-74" source="KpQUSOOWRG7htBL5Qk_r-9" target="KpQUSOOWRG7htBL5Qk_r-37">
          <mxGeometry relative="1" as="geometry" />
        </mxCell>
        <mxCell id="KpQUSOOWRG7htBL5Qk_r-9" value="API ECS" style="sketch=0;points=[[0,0,0],[0.25,0,0],[0.5,0,0],[0.75,0,0],[1,0,0],[0,1,0],[0.25,1,0],[0.5,1,0],[0.75,1,0],[1,1,0],[0,0.25,0],[0,0.5,0],[0,0.75,0],[1,0.25,0],[1,0.5,0],[1,0.75,0]];outlineConnect=0;fontColor=#232F3E;gradientColor=#F78E04;gradientDirection=north;fillColor=#D05C17;strokeColor=#ffffff;dashed=0;verticalLabelPosition=bottom;verticalAlign=top;align=center;html=1;fontSize=12;fontStyle=0;aspect=fixed;shape=mxgraph.aws4.resourceIcon;resIcon=mxgraph.aws4.ecs;" vertex="1" parent="UEzPUAAOIrF-is8g5C7q-74">
          <mxGeometry x="730" y="157" width="78" height="78" as="geometry" />
        </mxCell>
        <mxCell id="KpQUSOOWRG7htBL5Qk_r-15" value="Aurora" style="sketch=0;points=[[0,0,0],[0.25,0,0],[0.5,0,0],[0.75,0,0],[1,0,0],[0,1,0],[0.25,1,0],[0.5,1,0],[0.75,1,0],[1,1,0],[0,0.25,0],[0,0.5,0],[0,0.75,0],[1,0.25,0],[1,0.5,0],[1,0.75,0]];outlineConnect=0;fontColor=#232F3E;gradientColor=#4D72F3;gradientDirection=north;fillColor=#3334B9;strokeColor=#ffffff;dashed=0;verticalLabelPosition=bottom;verticalAlign=top;align=center;html=1;fontSize=12;fontStyle=0;aspect=fixed;shape=mxgraph.aws4.resourceIcon;resIcon=mxgraph.aws4.aurora;" vertex="1" parent="UEzPUAAOIrF-is8g5C7q-74">
          <mxGeometry x="920" y="45" width="78" height="78" as="geometry" />
        </mxCell>
        <mxCell id="KpQUSOOWRG7htBL5Qk_r-14" value="S3" style="sketch=0;points=[[0,0,0],[0.25,0,0],[0.5,0,0],[0.75,0,0],[1,0,0],[0,1,0],[0.25,1,0],[0.5,1,0],[0.75,1,0],[1,1,0],[0,0.25,0],[0,0.5,0],[0,0.75,0],[1,0.25,0],[1,0.5,0],[1,0.75,0]];outlineConnect=0;fontColor=#232F3E;gradientColor=#60A337;gradientDirection=north;fillColor=#277116;strokeColor=#ffffff;dashed=0;verticalLabelPosition=bottom;verticalAlign=top;align=center;html=1;fontSize=12;fontStyle=0;aspect=fixed;shape=mxgraph.aws4.resourceIcon;resIcon=mxgraph.aws4.s3;" vertex="1" parent="UEzPUAAOIrF-is8g5C7q-74">
          <mxGeometry x="920" y="247" width="78" height="78" as="geometry" />
        </mxCell>
        <mxCell id="KpQUSOOWRG7htBL5Qk_r-37" value="" style="sketch=0;outlineConnect=0;fontColor=#232F3E;gradientColor=none;fillColor=#4D27AA;strokeColor=none;dashed=0;verticalLabelPosition=bottom;verticalAlign=top;align=center;html=1;fontSize=12;fontStyle=0;aspect=fixed;pointerEvents=1;shape=mxgraph.aws4.nat_gateway;" vertex="1" parent="UEzPUAAOIrF-is8g5C7q-74">
          <mxGeometry x="730" y="25" width="78" height="78" as="geometry" />
        </mxCell>
        <mxCell id="KpQUSOOWRG7htBL5Qk_r-42" value="In-bound" style="text;html=1;strokeColor=none;fillColor=none;align=center;verticalAlign=middle;whiteSpace=wrap;rounded=0;" vertex="1" parent="UEzPUAAOIrF-is8g5C7q-74">
          <mxGeometry x="10" y="49" width="60" height="30" as="geometry" />
        </mxCell>
        <mxCell id="KpQUSOOWRG7htBL5Qk_r-19" value="AWS Cloud" style="points=[[0,0],[0.25,0],[0.5,0],[0.75,0],[1,0],[1,0.25],[1,0.5],[1,0.75],[1,1],[0.75,1],[0.5,1],[0.25,1],[0,1],[0,0.75],[0,0.5],[0,0.25]];outlineConnect=0;gradientColor=none;html=1;whiteSpace=wrap;fontSize=12;fontStyle=0;shape=mxgraph.aws4.group;grIcon=mxgraph.aws4.group_aws_cloud_alt;strokeColor=#232F3E;fillColor=none;verticalAlign=top;align=left;spacingLeft=30;fontColor=#232F3E;dashed=0;labelBackgroundColor=#ffffff;container=1;pointerEvents=0;collapsible=0;recursiveResize=0;" vertex="1" parent="1">
          <mxGeometry x="50" y="450" width="1030" height="350" as="geometry" />
        </mxCell>
        <mxCell id="KpQUSOOWRG7htBL5Qk_r-27" style="edgeStyle=orthogonalEdgeStyle;rounded=0;orthogonalLoop=1;jettySize=auto;html=1;entryX=0.5;entryY=1;entryDx=0;entryDy=0;entryPerimeter=0;" edge="1" parent="KpQUSOOWRG7htBL5Qk_r-19" source="KpQUSOOWRG7htBL5Qk_r-32" target="KpQUSOOWRG7htBL5Qk_r-30">
          <mxGeometry relative="1" as="geometry">
            <mxPoint x="808" y="199" as="sourcePoint" />
            <mxPoint x="920" y="119" as="targetPoint" />
          </mxGeometry>
        </mxCell>
        <mxCell id="KpQUSOOWRG7htBL5Qk_r-28" style="edgeStyle=orthogonalEdgeStyle;rounded=0;orthogonalLoop=1;jettySize=auto;html=1;" edge="1" parent="KpQUSOOWRG7htBL5Qk_r-19" source="KpQUSOOWRG7htBL5Qk_r-32" target="KpQUSOOWRG7htBL5Qk_r-31">
          <mxGeometry relative="1" as="geometry">
            <mxPoint x="808" y="199" as="sourcePoint" />
          </mxGeometry>
        </mxCell>
        <mxCell id="KpQUSOOWRG7htBL5Qk_r-30" value="Aurora" style="sketch=0;points=[[0,0,0],[0.25,0,0],[0.5,0,0],[0.75,0,0],[1,0,0],[0,1,0],[0.25,1,0],[0.5,1,0],[0.75,1,0],[1,1,0],[0,0.25,0],[0,0.5,0],[0,0.75,0],[1,0.25,0],[1,0.5,0],[1,0.75,0]];outlineConnect=0;fontColor=#232F3E;gradientColor=#4D72F3;gradientDirection=north;fillColor=#3334B9;strokeColor=#ffffff;dashed=0;verticalLabelPosition=bottom;verticalAlign=top;align=center;html=1;fontSize=12;fontStyle=0;aspect=fixed;shape=mxgraph.aws4.resourceIcon;resIcon=mxgraph.aws4.aurora;" vertex="1" parent="KpQUSOOWRG7htBL5Qk_r-19">
          <mxGeometry x="830" y="40" width="78" height="78" as="geometry" />
        </mxCell>
        <mxCell id="KpQUSOOWRG7htBL5Qk_r-31" value="S3" style="sketch=0;points=[[0,0,0],[0.25,0,0],[0.5,0,0],[0.75,0,0],[1,0,0],[0,1,0],[0.25,1,0],[0.5,1,0],[0.75,1,0],[1,1,0],[0,0.25,0],[0,0.5,0],[0,0.75,0],[1,0.25,0],[1,0.5,0],[1,0.75,0]];outlineConnect=0;fontColor=#232F3E;gradientColor=#60A337;gradientDirection=north;fillColor=#277116;strokeColor=#ffffff;dashed=0;verticalLabelPosition=bottom;verticalAlign=top;align=center;html=1;fontSize=12;fontStyle=0;aspect=fixed;shape=mxgraph.aws4.resourceIcon;resIcon=mxgraph.aws4.s3;" vertex="1" parent="KpQUSOOWRG7htBL5Qk_r-19">
          <mxGeometry x="830" y="240" width="78" height="78" as="geometry" />
        </mxCell>
        <mxCell id="KpQUSOOWRG7htBL5Qk_r-41" style="edgeStyle=orthogonalEdgeStyle;rounded=0;orthogonalLoop=1;jettySize=auto;html=1;exitX=0.5;exitY=0;exitDx=0;exitDy=0;exitPerimeter=0;" edge="1" parent="KpQUSOOWRG7htBL5Qk_r-19" source="KpQUSOOWRG7htBL5Qk_r-32" target="KpQUSOOWRG7htBL5Qk_r-38">
          <mxGeometry relative="1" as="geometry" />
        </mxCell>
        <mxCell id="KpQUSOOWRG7htBL5Qk_r-32" value="&lt;div&gt;ELLT-BATCH&lt;/div&gt;&lt;div&gt;OLS-BATCH&lt;br&gt;&lt;/div&gt;" style="sketch=0;points=[[0,0,0],[0.25,0,0],[0.5,0,0],[0.75,0,0],[1,0,0],[0,1,0],[0.25,1,0],[0.5,1,0],[0.75,1,0],[1,1,0],[0,0.25,0],[0,0.5,0],[0,0.75,0],[1,0.25,0],[1,0.5,0],[1,0.75,0]];outlineConnect=0;fontColor=#232F3E;gradientColor=#F78E04;gradientDirection=north;fillColor=#D05C17;strokeColor=#ffffff;dashed=0;verticalLabelPosition=bottom;verticalAlign=top;align=center;html=1;fontSize=12;fontStyle=0;aspect=fixed;shape=mxgraph.aws4.resourceIcon;resIcon=mxgraph.aws4.ec2;" vertex="1" parent="KpQUSOOWRG7htBL5Qk_r-19">
          <mxGeometry x="610" y="150" width="78" height="78" as="geometry" />
        </mxCell>
        <mxCell id="KpQUSOOWRG7htBL5Qk_r-35" style="edgeStyle=orthogonalEdgeStyle;rounded=0;orthogonalLoop=1;jettySize=auto;html=1;" edge="1" parent="KpQUSOOWRG7htBL5Qk_r-19" source="KpQUSOOWRG7htBL5Qk_r-33" target="KpQUSOOWRG7htBL5Qk_r-34">
          <mxGeometry relative="1" as="geometry" />
        </mxCell>
        <mxCell id="KpQUSOOWRG7htBL5Qk_r-33" value="gw.open.lotteeps.com/open-batch" style="sketch=0;points=[[0,0,0],[0.25,0,0],[0.5,0,0],[0.75,0,0],[1,0,0],[0,1,0],[0.25,1,0],[0.5,1,0],[0.75,1,0],[1,1,0],[0,0.25,0],[0,0.5,0],[0,0.75,0],[1,0.25,0],[1,0.5,0],[1,0.75,0]];outlineConnect=0;fontColor=#232F3E;gradientColor=#945DF2;gradientDirection=north;fillColor=#5A30B5;strokeColor=#ffffff;dashed=0;verticalLabelPosition=bottom;verticalAlign=top;align=center;html=1;fontSize=12;fontStyle=0;aspect=fixed;shape=mxgraph.aws4.resourceIcon;resIcon=mxgraph.aws4.elastic_load_balancing;" vertex="1" parent="KpQUSOOWRG7htBL5Qk_r-19">
          <mxGeometry x="90" y="150" width="78" height="78" as="geometry" />
        </mxCell>
        <mxCell id="KpQUSOOWRG7htBL5Qk_r-36" style="edgeStyle=orthogonalEdgeStyle;rounded=0;orthogonalLoop=1;jettySize=auto;html=1;entryX=0;entryY=0.5;entryDx=0;entryDy=0;entryPerimeter=0;" edge="1" parent="KpQUSOOWRG7htBL5Qk_r-19" source="KpQUSOOWRG7htBL5Qk_r-34" target="KpQUSOOWRG7htBL5Qk_r-44">
          <mxGeometry relative="1" as="geometry">
            <mxPoint x="480" y="200" as="targetPoint" />
          </mxGeometry>
        </mxCell>
        <mxCell id="KpQUSOOWRG7htBL5Qk_r-34" value="Kong API Gateway" style="sketch=0;points=[[0,0,0],[0.25,0,0],[0.5,0,0],[0.75,0,0],[1,0,0],[0,1,0],[0.25,1,0],[0.5,1,0],[0.75,1,0],[1,1,0],[0,0.25,0],[0,0.5,0],[0,0.75,0],[1,0.25,0],[1,0.5,0],[1,0.75,0]];outlineConnect=0;fontColor=#232F3E;gradientColor=#F78E04;gradientDirection=north;fillColor=#D05C17;strokeColor=#ffffff;dashed=0;verticalLabelPosition=bottom;verticalAlign=top;align=center;html=1;fontSize=12;fontStyle=0;aspect=fixed;shape=mxgraph.aws4.resourceIcon;resIcon=mxgraph.aws4.ec2;" vertex="1" parent="KpQUSOOWRG7htBL5Qk_r-19">
          <mxGeometry x="280" y="150" width="78" height="78" as="geometry" />
        </mxCell>
        <mxCell id="KpQUSOOWRG7htBL5Qk_r-38" value="" style="sketch=0;outlineConnect=0;fontColor=#232F3E;gradientColor=none;fillColor=#4D27AA;strokeColor=none;dashed=0;verticalLabelPosition=bottom;verticalAlign=top;align=center;html=1;fontSize=12;fontStyle=0;aspect=fixed;pointerEvents=1;shape=mxgraph.aws4.nat_gateway;" vertex="1" parent="KpQUSOOWRG7htBL5Qk_r-19">
          <mxGeometry x="610" y="20" width="78" height="78" as="geometry" />
        </mxCell>
        <mxCell id="KpQUSOOWRG7htBL5Qk_r-43" value="out-bound" style="text;html=1;strokeColor=none;fillColor=none;align=center;verticalAlign=middle;whiteSpace=wrap;rounded=0;" vertex="1" parent="KpQUSOOWRG7htBL5Qk_r-19">
          <mxGeometry x="10" y="50" width="60" height="30" as="geometry" />
        </mxCell>
        <mxCell id="KpQUSOOWRG7htBL5Qk_r-45" style="edgeStyle=orthogonalEdgeStyle;rounded=0;orthogonalLoop=1;jettySize=auto;html=1;" edge="1" parent="KpQUSOOWRG7htBL5Qk_r-19" source="KpQUSOOWRG7htBL5Qk_r-44" target="KpQUSOOWRG7htBL5Qk_r-32">
          <mxGeometry relative="1" as="geometry" />
        </mxCell>
        <mxCell id="KpQUSOOWRG7htBL5Qk_r-44" value="AWS ELB" style="sketch=0;points=[[0,0,0],[0.25,0,0],[0.5,0,0],[0.75,0,0],[1,0,0],[0,1,0],[0.25,1,0],[0.5,1,0],[0.75,1,0],[1,1,0],[0,0.25,0],[0,0.5,0],[0,0.75,0],[1,0.25,0],[1,0.5,0],[1,0.75,0]];outlineConnect=0;fontColor=#232F3E;gradientColor=#945DF2;gradientDirection=north;fillColor=#5A30B5;strokeColor=#ffffff;dashed=0;verticalLabelPosition=bottom;verticalAlign=top;align=center;html=1;fontSize=12;fontStyle=0;aspect=fixed;shape=mxgraph.aws4.resourceIcon;resIcon=mxgraph.aws4.elastic_load_balancing;" vertex="1" parent="KpQUSOOWRG7htBL5Qk_r-19">
          <mxGeometry x="450" y="150" width="78" height="78" as="geometry" />
        </mxCell>
      </root>
    </mxGraphModel>
  </diagram>
</mxfile>
